<svg xmlns="http://www.w3.org/2000/svg"
     viewBox="0 0 136.13 136.13"><defs><style>.cls-1{fill:#ffffff;}</style></defs><title>new-west-icon</title><g id="Layer_2" data-name="Layer 2"><g id="Layer_1-2" data-name="Layer 1"><path class="cls-1" d="M68.07,136.13a68.07,68.07,0,1,1,68.06-68.06A68.14,68.14,0,0,1,68.07,136.13Zm0-129.87a61.81,61.81,0,1,0,61.8,61.81A61.87,61.87,0,0,0,68.07,6.26Z"/><path class="cls-1" d="M115.27,67C80.91,62.65,74,59.15,69.16,20.73c-.13-1-2.07-1.07-2.2,0-4,32.09-7.43,40.41-39,45.25-6.27,1-8,.08-8,2.11,0,1.38,1,1,7.72,2,30.13,4.32,34.85,11,39.14,45.11a1.24,1.24,0,0,0,2.43,0c4.14-32.92,6.43-41,46-46A1.12,1.12,0,0,0,115.27,67Zm-27.63,1.2c-10.22,3.92-16.11,10-19.72,19.68-3.8-10.33-10.06-16.36-19.51-19.93h0l-.15-.07c10.49-4,16.34-10.06,19.88-19.56,3.9,10.36,10.07,16.23,19.68,19.81a1.31,1.31,0,0,0-.21.08Z"/><path class="cls-1" d="M43.41,79.25a21.41,21.41,0,0,1-3.3,6,19.46,19.46,0,0,1-9.06,6.28,19.71,19.71,0,0,1,8.05,5.31A21,21,0,0,1,43.26,104a20.78,20.78,0,0,1,4.25-7.13A21.09,21.09,0,0,1,55.6,91.7a20.63,20.63,0,0,1-6.94-4.18A21.29,21.29,0,0,1,43.41,79.25Z"/><path class="cls-1" d="M92.89,79.25a21.67,21.67,0,0,1-3.3,6,19.51,19.51,0,0,1-9.06,6.28,19.78,19.78,0,0,1,8,5.31A21.15,21.15,0,0,1,92.74,104,20.63,20.63,0,0,1,97,96.88a21.09,21.09,0,0,1,8.09-5.18,20.53,20.53,0,0,1-6.94-4.18A21.29,21.29,0,0,1,92.89,79.25Z"/></g></g></svg>
