<svg xmlns="http://www.w3.org/2000/svg" viewBox="0 0 37.27 32.28"><defs><style>.cls-1,.cls-2{fill:#fff;}.cls-2{opacity:0.7;}</style></defs><title>alchemy-logo</title><g id="Layer_2" data-name="Layer 2"><g id="Layer_1-2" data-name="Layer 1"><path class="cls-1" d="M18.64,6.41,31.72,29.08H5.55L18.64,6.41m0-6.41L0,32.28H37.27L18.64,0Z"/><path class="cls-2" d="M18.64,14a7.54,7.54,0,1,0,7.53,7.54A7.55,7.55,0,0,0,18.64,14Zm0,2.41a5.13,5.13,0,0,1,5.05,4.32H13.59A5.12,5.12,0,0,1,18.64,16.39Zm0,10.26a5.12,5.12,0,0,1-5.05-4.33h10.1A5.13,5.13,0,0,1,18.64,26.65Z"/></g></g></svg>