<svg xmlns="http://www.w3.org/2000/svg" viewBox="0 0 227.52 153.76"><defs><style>.cls-1{fill:#fff;}</style></defs><title>punkgoes-logo</title><g id="Layer_2" data-name="Layer 2"><g id="Layer_1-2" data-name="Layer 1"><path class="cls-1" d="M72.78,91.37A110.65,110.65,0,0,1,81,64.86a175,175,0,0,1,19.46-33c4.21-5.73,8.83-11.36,13.7-16.77a98.33,98.33,0,0,0-7.64-7.36A43.83,43.83,0,0,0,96.38.86a7.45,7.45,0,0,0-6-.4A31.89,31.89,0,0,0,82.44,5.2,103.43,103.43,0,0,0,69.37,17.5q-5.09,5.63-9.59,11.72A118.89,118.89,0,0,0,46.7,51.37a71.06,71.06,0,0,0-5.29,16.92,42.42,42.42,0,0,0-.12,14.61c.43,2.41,2.28,6.5,3.78,9.57a23.61,23.61,0,0,0,6,7.76l.38.31A47.69,47.69,0,0,0,67,108.32c1.58.5,3.19.92,4.8,1.3A75,75,0,0,1,72.78,91.37Z"/><path class="cls-1" d="M27.74,66A84.28,84.28,0,0,1,34,45.74,131.93,131.93,0,0,1,48.62,21c2.17-2.95,4.52-5.85,6.94-8.7a74.41,74.41,0,0,0-6.62-6.55A32.34,32.34,0,0,0,41.38.64a5.55,5.55,0,0,0-4.46-.3A23.68,23.68,0,0,0,31,3.87,76.39,76.39,0,0,0,21.3,13a109.88,109.88,0,0,0-7.12,8.71A87.74,87.74,0,0,0,4.45,38.19,52.6,52.6,0,0,0,.52,50.76,31.44,31.44,0,0,0,.43,61.62a34.47,34.47,0,0,0,2.81,7.11,17.62,17.62,0,0,0,4.5,5.78l.28.22a35.74,35.74,0,0,0,11.55,5.79,57.41,57.41,0,0,0,7.68,1.78A56.5,56.5,0,0,1,27.74,66Z"/><path class="cls-1" d="M173.84,113.05a34.05,34.05,0,0,1-6.93,3v37.32c2.32-.09,4.63-.4,6.93-.67Z"/><path class="cls-1" d="M173.84,9a68,68,0,0,0-6.93-5V50.29a34.64,34.64,0,0,1,6.93,3.05Z"/><path class="cls-1" d="M139.17,53.34a34.48,34.48,0,0,1,6.94-3.05V4.78c-1.13.77-2.27,1.52-3.36,2.36-1.24,1-2.37,2.07-3.58,3.08Z"/><path class="cls-1" d="M153,48.88a33.15,33.15,0,0,1,3.47-.35,33,33,0,0,1,3.46.35V.48a9.38,9.38,0,0,0-6.33.15c-.21.08-.39.21-.6.3Z"/><path class="cls-1" d="M160,117.51a33,33,0,0,1-3.46.35,33.15,33.15,0,0,1-3.47-.35v36.17c.41,0,.82.06,1.23.07,1.9,0,3.8,0,5.7-.07Z"/><path class="cls-1" d="M146.11,116.09a33.89,33.89,0,0,1-6.94-3v39.41c2.31.33,4.62.64,6.94.84Z"/><path class="cls-1" d="M226.24,91.78c-.44-2.17-4-14.47-4.41-15.66-1.18-3-2.24-6.07-3.6-9a165.2,165.2,0,0,0-11-19.91,188.67,188.67,0,0,0-17.05-22.45c-3-3.35-6.12-6.52-9.37-9.6V58.48a34.57,34.57,0,0,1,0,49.43v43.76c1.93-.37,3.86-.68,5.78-1.14a78.55,78.55,0,0,0,18-6.45,43.39,43.39,0,0,0,13.2-9.83,36.67,36.67,0,0,0,6.09-10.39A49.94,49.94,0,0,0,227.45,107,61,61,0,0,0,226.24,91.78Z"/><path class="cls-1" d="M132.24,107.91a34.57,34.57,0,0,1,0-49.43V16.39c-2.54,2.47-5,5-7.43,7.63a206.46,206.46,0,0,0-13.15,16.07,163,163,0,0,0-17.94,30.4,96.68,96.68,0,0,0-7.27,23.2,58.2,58.2,0,0,0-.16,20c.59,3.31,3.12,8.92,5.19,13.13a32.34,32.34,0,0,0,8.3,10.66l.52.42c6.35,5,13.65,8.25,21.31,10.67a100,100,0,0,0,10.63,2.65Z"/></g></g></svg>