<svg xmlns="http://www.w3.org/2000/svg" viewBox="0 0 238.64 132.66"><defs><style>.cls-1,.cls-2{fill:#fff;}.cls-1{opacity:0.6;}</style></defs><title>walaapp-logo</title><g id="Layer_2" data-name="Layer 2"><g id="Layer_1-2" data-name="Layer 1"><polygon class="cls-1" points="153.64 11.02 171.07 82.59 214.46 82.86 153.64 11.02"/><polygon class="cls-2" points="72.41 104.45 103.44 109.89 9.96 132.66 72.41 104.45"/><polygon class="cls-1" points="173.56 92.82 169.82 77.48 132.08 80.65 107.36 65.61 105.24 89.63 72.41 104.45 103.44 109.89 181.03 123.49 173.56 92.82"/><polygon class="cls-2" points="0 91.76 123.51 81.38 72.41 104.45 0 91.76"/><polygon class="cls-2" points="224.68 80.37 214.46 82.86 238.64 93.22 224.68 80.37"/><polygon class="cls-1" points="214.46 82.86 20.98 0 173.56 92.82 238.64 93.22 214.46 82.86"/><polygon class="cls-2" points="214.46 82.86 181.03 123.49 20.98 0 214.46 82.86"/></g></g></svg>